<svg xmlns="http://www.w3.org/2000/svg" version="1.1" xmlns:xlink="http://www.w3.org/1999/xlink" width="24" height="24" x="0" y="0" viewBox="0 0 48 48" style="enable-background:new 0 0 512 512" xml:space="preserve" class=""><g><linearGradient id="b" x1="24" x2="24" y1="1.218" y2="45.692" gradientUnits="userSpaceOnUse"><stop offset="0" stop-color="#ffedff"></stop><stop offset="1" stop-color="#ffc3f9"></stop></linearGradient><linearGradient id="a" x1="26.005" x2="26.005" y1="8.915" y2="38.526" gradientUnits="userSpaceOnUse"><stop offset="0" stop-color="#b444ff"></stop><stop offset="1" stop-color="#f582ff"></stop></linearGradient><linearGradient xlink:href="#a" id="c" x1="26" x2="26" y1="8.915" y2="38.526"></linearGradient><linearGradient xlink:href="#a" id="d" x1="15" x2="15" y1="8.915" y2="38.526"></linearGradient><linearGradient xlink:href="#a" id="e" x1="37" x2="37" y1="8.915" y2="38.526"></linearGradient><linearGradient xlink:href="#a" id="f" x1="33.778" x2="33.778" y1="8.915" y2="38.526"></linearGradient><linearGradient xlink:href="#a" id="g" x1="18.222" x2="18.222" y1="8.915" y2="38.526"></linearGradient><linearGradient xlink:href="#a" id="h" x1="19" x2="19" y1="8.915" y2="38.526"></linearGradient><path fill="url(#b)" d="M46.406 10.717a9.683 9.683 0 0 0-9.124-9.124 235.401 235.401 0 0 0-26.564 0 9.684 9.684 0 0 0-9.124 9.124 235.412 235.412 0 0 0 0 26.565 9.684 9.684 0 0 0 9.124 9.124 234.815 234.815 0 0 0 26.564 0 9.683 9.683 0 0 0 9.124-9.124 235.412 235.412 0 0 0 0-26.565z" data-name="Layer 2" opacity="1" data-original="url(#b)" class=""></path><g data-name="Layer 3"><path fill="url(#a)" d="M26 14.25a7.752 7.752 0 0 0-7.74 7.54 6.008 6.008 0 0 1 .74-.04A7.347 7.347 0 0 1 26.25 29v.02a5.685 5.685 0 0 1 1.25.58A7.748 7.748 0 0 0 26 14.25z" opacity="1" data-original="url(#a)"></path><path fill="url(#c)" d="M26 12.75a.75.75 0 0 0 .75-.75v-2a.75.75 0 0 0-1.5 0v2a.75.75 0 0 0 .75.75z" opacity="1" data-original="url(#c)"></path><path fill="url(#d)" d="M14 22.75h2a.75.75 0 0 0 0-1.5h-2a.75.75 0 0 0 0 1.5z" opacity="1" data-original="url(#d)"></path><path fill="url(#e)" d="M38 21.25h-2a.75.75 0 0 0 0 1.5h2a.75.75 0 0 0 0-1.5z" opacity="1" data-original="url(#e)"></path><path fill="url(#f)" d="m33.955 12.984-1.414 1.414a.75.75 0 0 0 0 1.061.76.76 0 0 0 1.06 0l1.415-1.414a.75.75 0 0 0-1.06-1.06zM33.602 28.541a.75.75 0 1 0-1.061 1.06l1.414 1.415a.759.759 0 0 0 1.06 0 .75.75 0 0 0 0-1.06z" opacity="1" data-original="url(#f)"></path><path fill="url(#g)" d="M18.398 15.459a.766.766 0 0 0 1.061 0 .75.75 0 0 0 0-1.06l-1.414-1.415a.75.75 0 1 0-1.06 1.06z" opacity="1" data-original="url(#g)"></path><path fill="url(#h)" d="M24.75 30.257V29a5.75 5.75 0 0 0-11.5 0v1.257a4.25 4.25 0 0 0 .25 8.493h11a4.25 4.25 0 0 0 .25-8.493z" opacity="1" data-original="url(#h)"></path></g></g></svg>